<svg width="25" height="24" viewBox="0 0 25 24" fill="none" xmlns="http://www.w3.org/2000/svg">
<path d="M21.1667 5C21.1667 3.897 20.2697 3 19.1667 3H5.16667C4.06367 3 3.16667 3.897 3.16667 5V19C3.16667 20.103 4.06367 21 5.16667 21H19.1667C20.2697 21 21.1667 20.103 21.1667 19V5ZM5.16667 19V5H19.1667L19.1687 19H5.16667Z" fill="black"/>
<path d="M7.16667 7H9.16467V9H7.16667V7ZM11.1667 7H17.1667V9H11.1667V7ZM7.16667 11H9.16467V13H7.16667V11ZM11.1667 11H17.1667V13H11.1667V11ZM7.16667 15H9.16467V17H7.16667V15ZM11.1667 15H17.1667V17H11.1667V15Z" fill="black"/>
</svg>
