<svg width="21" height="20" viewBox="0 0 21 20" fill="none" xmlns="http://www.w3.org/2000/svg">
<path d="M5.83331 15L9.03331 8.2L15.8333 5L12.6333 11.8L5.83331 15ZM10.8333 9.1C10.5946 9.1 10.3657 9.19482 10.1969 9.3636C10.0281 9.53239 9.93331 9.76131 9.93331 10C9.93331 10.2387 10.0281 10.4676 10.1969 10.6364C10.3657 10.8052 10.5946 10.9 10.8333 10.9C11.072 10.9 11.3009 10.8052 11.4697 10.6364C11.6385 10.4676 11.7333 10.2387 11.7333 10C11.7333 9.76131 11.6385 9.53239 11.4697 9.3636C11.3009 9.19482 11.072 9.1 10.8333 9.1ZM10.8333 0C12.1465 0 13.4469 0.258658 14.6601 0.761205C15.8734 1.26375 16.9758 2.00035 17.9044 2.92893C18.833 3.85752 19.5696 4.95991 20.0721 6.17317C20.5747 7.38642 20.8333 8.68678 20.8333 10C20.8333 12.6522 19.7797 15.1957 17.9044 17.0711C16.029 18.9464 13.4855 20 10.8333 20C9.52009 20 8.21973 19.7413 7.00648 19.2388C5.79322 18.7362 4.69083 17.9997 3.76225 17.0711C1.88688 15.1957 0.833313 12.6522 0.833313 10C0.833313 7.34784 1.88688 4.8043 3.76225 2.92893C5.63761 1.05357 8.18115 0 10.8333 0ZM10.8333 2C8.71158 2 6.67675 2.84285 5.17646 4.34315C3.67617 5.84344 2.83331 7.87827 2.83331 10C2.83331 12.1217 3.67617 14.1566 5.17646 15.6569C6.67675 17.1571 8.71158 18 10.8333 18C12.955 18 14.9899 17.1571 16.4902 15.6569C17.9905 14.1566 18.8333 12.1217 18.8333 10C18.8333 7.87827 17.9905 5.84344 16.4902 4.34315C14.9899 2.84285 12.955 2 10.8333 2Z" fill="white"/>
</svg>
