<svg width="30" height="30" viewBox="0 0 30 30" fill="none" xmlns="http://www.w3.org/2000/svg">
<path d="M27.3155 23.4209L22.8495 18.6698L19.4144 17.1601C20.5582 15.4297 21.171 13.3654 21.1688 11.25C21.1688 5.56365 16.8202 0.9375 11.475 0.9375C6.12983 0.9375 1.78125 5.56365 1.78125 11.25C1.78125 16.9363 6.12983 21.5625 11.475 21.5625C13.4807 21.5649 15.4373 20.9018 17.072 19.6654L18.4875 23.3099L22.9533 28.0612C23.2397 28.3659 23.5797 28.6076 23.9539 28.7725C24.3281 28.9374 24.7292 29.0223 25.1343 29.0223C25.5393 29.0224 25.9404 28.9375 26.3146 28.7726C26.6889 28.6077 27.0289 28.366 27.3153 28.0613C27.6018 27.7566 27.829 27.3949 27.984 26.9968C28.139 26.5987 28.2188 26.172 28.2188 25.7411C28.2188 25.3102 28.1391 24.8835 27.9841 24.4854C27.8291 24.0873 27.6019 23.7256 27.3155 23.4209ZM3.54375 11.25C3.54375 6.59766 7.1018 2.8125 11.475 2.8125C15.8482 2.8125 19.4063 6.59766 19.4063 11.25C19.4063 15.9023 15.8482 19.6875 11.475 19.6875C7.1018 19.6875 3.54375 15.9023 3.54375 11.25ZM26.0691 26.7354C25.821 26.9987 25.4848 27.1466 25.1344 27.1466C24.7839 27.1466 24.4478 26.9987 24.1996 26.7354L19.9822 22.2487L18.6662 18.86L21.8517 20.26L26.0692 24.7467C26.3167 25.0106 26.4557 25.3682 26.4556 25.741C26.4556 26.1139 26.3166 26.4715 26.0691 26.7354Z" fill="white"/>
</svg>
