<svg width="35" height="35" viewBox="0 0 35 35" fill="none" xmlns="http://www.w3.org/2000/svg">
<path fill-rule="evenodd" clip-rule="evenodd" d="M11.9444 10.5556C11.9444 9.08213 12.5298 7.66905 13.5716 6.62718C14.6135 5.58532 16.0266 5 17.5 5C18.9734 5 20.3865 5.58532 21.4284 6.62718C22.4702 7.66905 23.0556 9.08213 23.0556 10.5556C23.0556 12.029 22.4702 13.4421 21.4284 14.4839C20.3865 15.5258 18.9734 16.1111 17.5 16.1111C16.0266 16.1111 14.6135 15.5258 13.5716 14.4839C12.5298 13.4421 11.9444 12.029 11.9444 10.5556ZM11.9444 18.8889C10.1027 18.8889 8.33632 19.6205 7.03398 20.9229C5.73164 22.2252 5 23.9916 5 25.8333C5 26.9384 5.43899 27.9982 6.22039 28.7796C7.00179 29.561 8.0616 30 9.16667 30H25.8333C26.9384 30 27.9982 29.561 28.7796 28.7796C29.561 27.9982 30 26.9384 30 25.8333C30 23.9916 29.2684 22.2252 27.966 20.9229C26.6637 19.6205 24.8973 18.8889 23.0556 18.8889H11.9444Z" fill="black"/>
</svg>
