<svg width="24" height="24" viewBox="0 0 24 24" fill="none" xmlns="http://www.w3.org/2000/svg">
<path d="M12 21C10.346 21 8.99997 19.654 8.99997 18V13.236C7.85697 14.26 5.97497 14.215 4.87897 13.121C4.31656 12.5584 4.00061 11.7955 4.00061 11C4.00061 10.2045 4.31656 9.44158 4.87897 8.879L12 1.758L19.121 8.879C19.6834 9.44158 19.9993 10.2045 19.9993 11C19.9993 11.7955 19.6834 12.5584 19.121 13.121C18.027 14.216 16.142 14.261 15 13.236V18C15 19.654 13.654 21 12 21ZM11 8.414V18C11.0115 18.2575 11.1219 18.5006 11.3082 18.6787C11.4944 18.8569 11.7422 18.9563 12 18.9563C12.2577 18.9563 12.5055 18.8569 12.6918 18.6787C12.8781 18.5006 12.9885 18.2575 13 18V8.414L16.293 11.707C16.4833 11.889 16.7366 11.9906 17 11.9906C17.2634 11.9906 17.5166 11.889 17.707 11.707C17.8944 11.5195 17.9998 11.2652 17.9998 11C17.9998 10.7348 17.8944 10.4805 17.707 10.293L12 4.586L6.29297 10.293C6.1055 10.4805 6.00018 10.7348 6.00018 11C6.00018 11.2652 6.1055 11.5195 6.29297 11.707C6.48334 11.889 6.73658 11.9906 6.99997 11.9906C7.26336 11.9906 7.5166 11.889 7.70697 11.707L11 8.414Z" fill="white"/>
</svg>
